<svg xmlns="http://www.w3.org/2000/svg" viewBox="0 0 32 32">
  <defs>
    <linearGradient id="g" x1="0" y1="0" x2="1" y2="1">
      <stop offset="0%" stop-color="#4A9EFF"/>
      <stop offset="100%" stop-color="#2266DD"/>
    </linearGradient>
  </defs>
  <!-- Rounded background -->
  <rect width="32" height="32" rx="7" fill="#0F1117"/>
  <!-- Stylized fingerprint arcs suggesting a human touch -->
  <path d="M16,6 C10,6 6,10.5 6,16" fill="none" stroke="url(#g)" stroke-width="2" stroke-linecap="round" opacity="0.5"/>
  <path d="M16,9 C12,9 9,12 9,16 C9,20 11,23 13,25" fill="none" stroke="url(#g)" stroke-width="2" stroke-linecap="round" opacity="0.65"/>
  <path d="M16,12 C14,12 12,14 12,16 C12,19 13,22 15,25" fill="none" stroke="url(#g)" stroke-width="2" stroke-linecap="round" opacity="0.8"/>
  <path d="M16,15 C15.5,15 15,15.5 15,16 C15,18.5 16,22 17,25" fill="none" stroke="url(#g)" stroke-width="2" stroke-linecap="round" opacity="0.9"/>
  <path d="M19,16 C19,13 18,12 16,12" fill="none" stroke="url(#g)" stroke-width="2" stroke-linecap="round" opacity="0.8"/>
  <path d="M22,16 C22,11 20,9 16,9" fill="none" stroke="url(#g)" stroke-width="2" stroke-linecap="round" opacity="0.65"/>
  <path d="M25,16 C25,9.5 21,6 16,6" fill="none" stroke="url(#g)" stroke-width="2" stroke-linecap="round" opacity="0.5"/>
</svg>
